# xmcd CD database file
#
# Track frame offsets:
#	150
#	11223
#	25738
#	41218
#	52907
#	67408
#	79711
#	93359
#	107796
#	118259
#	129557
#	143030
#	156885
#	167405
#	179257
#	191720
#	204653
#	217293
#	230773
#	245343
#	259449
#	274344
#	289131
#
# Disc length: 4054 seconds
#
# Revision: 0
# Processed by: cddbd v1.4PL0 Copyright (c) Steve Scherf et al.
# Submitted via: CDex 1.50
#
DISCID=680fd417
DTITLE=Anita o'Day - Complete Signature And London Recordings II
DYEAR=1900
DGENRE=Jazz
TTITLE0=Jamaica Moon
TTITLE1=Nothin' To Do
TTITLE2=Don't Kick It Around
TTITLE3=Poor Simple Simon
TTITLE4=Blues For Bojangles
TTITLE5=Your Eyes Are Bigger Than Your Heart
TTITLE6=Tennessee Waltz
TTITLE7=Something I Dream Last Night
TTITLE8=Yahoo Boo
TTITLE9=If I Could Steal You From Somebody Else
TTITLE10=Once There Lived A Fool
TTITLE11=I Apologize
TTITLE12=You Took Advantage Of me
TTITLE13=Lovesick Blues
TTITLE14=Black Moonlight
TTITLE15=Side By Side
TTITLE16=Harlem On Parade
TTITLE17=Fightin' Doug MacArthur
TTITLE18=That's What You Think
TTITLE19=Barrelhouse Bessie From Basin Street
TTITLE20=Deliver Me To Tennessee
TTITLE21=Massachussetts
TTITLE22="Murder", He Says
EXTD=
EXTT0=
EXTT1=
EXTT2=
EXTT3=
EXTT4=
EXTT5=
EXTT6=
EXTT7=
EXTT8=
EXTT9=
EXTT10=
EXTT11=
EXTT12=
EXTT13=
EXTT14=
EXTT15=
EXTT16=
EXTT17=
EXTT18=
EXTT19=
EXTT20=
EXTT21=
EXTT22=
PLAYORDER=
